<svg width="42" height="21" viewBox="0 0 42 21" fill="none" xmlns="http://www.w3.org/2000/svg">
<path d="M19.728 20H14.52L9.888 11.696L8.832 11.048L9.432 9.872H10.536C11.4 9.872 12.08 9.608 12.576 9.08C13.072 8.552 13.32 7.808 13.32 6.848C13.32 5.728 13.016 4.816 12.408 4.112C11.816 3.392 10.944 3.032 9.792 3.032C9.072 3.032 8.4 3.256 7.776 3.704V17.696L10.44 18.464L9.672 20.024H1.176V18.68L3.432 16.784V3.464L0.768 2.72L1.56 1.16H5.544C6.936 1.16 8.304 1.112 9.648 1.016C10.608 0.952 11.328 0.92 11.808 0.92C13.04 0.92 14.128 1.144 15.072 1.592C16.032 2.024 16.768 2.616 17.28 3.368C17.808 4.12 18.072 4.96 18.072 5.888C18.072 7.008 17.576 8.048 16.584 9.008C15.592 9.968 14.384 10.688 12.96 11.168L14.88 11.72L18 17.288L20.496 18.44L19.728 20ZM39.1123 4.4V20H37.0483L25.7923 7.16V17.168L29.2003 18.44L28.4323 20H21.4723V18.656L23.7283 16.76V4.16L21.0643 2.696L21.8563 1.136H26.0803L37.0483 13.616V3.944L33.6403 2.696L34.4323 1.136H41.3923V2.48L39.1123 4.4Z" fill="black"/>
</svg>
